<svg xmlns="http://www.w3.org/2000/svg" width="200" height="200" viewBox="0 0 200 200">
  <style>
    .primary { fill: #4F46E5; }
    .secondary { fill: #818CF8; }
    .skin { fill: #F8D8BD; }
    .hair { fill: #3F3F46; }
    .clothes { fill: #6366F1; }
  </style>
  <circle cx="100" cy="100" r="95" fill="#F5F3FF" />
  <!-- Head -->
  <circle cx="100" cy="70" r="30" class="skin" />
  <!-- Hair -->
  <path d="M70 60C70 45 85 35 100 35C115 35 130 45 130 60C130 60 125 40 100 40C75 40 70 60 70 60Z" class="hair" />
  <!-- Body -->
  <path d="M65 100C65 100 60 140 60 150C60 160 70 165 100 165C130 165 140 160 140 150C140 140 135 100 135 100C135 100 120 110 100 110C80 110 65 100 65 100Z" class="clothes" />
  <!-- Arms -->
  <path d="M65 100C65 100 55 120 50 130C45 140 50 145 55 140C60 135 70 110 70 110" class="clothes" />
  <path d="M135 100C135 100 145 120 150 130C155 140 150 145 145 140C140 135 130 110 130 110" class="clothes" />
  <!-- Face -->
  <circle cx="90" cy="65" r="3" class="primary" />
  <circle cx="110" cy="65" r="3" class="primary" />
  <path d="M95 80C95 80 100 85 105 80" fill="none" stroke="#3F3F46" stroke-width="2" stroke-linecap="round" />
  <!-- Decorative elements -->
  <circle cx="30" cy="50" r="8" class="secondary" opacity="0.5" />
  <circle cx="170" cy="60" r="10" class="secondary" opacity="0.5" />
  <circle cx="40" cy="150" r="12" class="secondary" opacity="0.5" />
  <circle cx="160" cy="140" r="15" class="secondary" opacity="0.5" />
</svg>